<svg width="50" height="18" viewBox="0 0 50 18" fill="none" xmlns="http://www.w3.org/2000/svg"><path d="M25 0L27.0206 6.21885H33.5595L28.2694 10.0623L30.2901 16.2812L25 12.4377L19.7099 16.2812L21.7306 10.0623L16.4405 6.21885H22.9794L25 0Z" fill="url(#paint0_linear_221_600)"/><path d="M45 4L46.1226 7.45492H49.7553L46.8164 9.59017L47.9389 13.0451L45 10.9098L42.0611 13.0451L43.1836 9.59017L40.2447 7.45492H43.8774L45 4Z" fill="url(#paint1_linear_221_600)"/><path d="M5 4L6.12257 7.45492H9.75528L6.81636 9.59017L7.93893 13.0451L5 10.9098L2.06107 13.0451L3.18364 9.59017L0.244718 7.45492H3.87743L5 4Z" fill="url(#paint2_linear_221_600)"/><defs><linearGradient id="paint0_linear_221_600" x1="25" y1="0" x2="25" y2="18" gradientUnits="userSpaceOnUse"><stop stop-color="#FFC700"/><stop offset="0.9998" stop-color="#F4E3A5"/><stop offset="0.9999" stop-color="#F4E7B7"/><stop offset="1" stop-color="#EDBF1E" stop-opacity="0"/></linearGradient><linearGradient id="paint1_linear_221_600" x1="45" y1="4" x2="45" y2="14" gradientUnits="userSpaceOnUse"><stop stop-color="#FFC700"/><stop offset="0.9998" stop-color="#F4E3A5"/><stop offset="0.9999" stop-color="#F4E7B7"/><stop offset="1" stop-color="#EDBF1E" stop-opacity="0"/></linearGradient><linearGradient id="paint2_linear_221_600" x1="5" y1="4" x2="5" y2="14" gradientUnits="userSpaceOnUse"><stop stop-color="#FFC700"/><stop offset="0.9998" stop-color="#F4E3A5"/><stop offset="0.9999" stop-color="#F4E7B7"/><stop offset="1" stop-color="#EDBF1E" stop-opacity="0"/></linearGradient></defs></svg>