<!-- Generated by IcoMoon.io -->
<svg version="1.1" xmlns="http://www.w3.org/2000/svg" width="1024" height="1024" viewBox="0 0 1024 1024">
<title></title>
<g id="icomoon-ignore">
</g>
<path fill="#fff" d="M946.176 858.112l-121.856-264.192c-3.072-6.144-9.216-10.24-16.384-10.24h-104.448c33.792-45.056 65.536-94.208 87.040-140.288 0 0 0-1.024 1.024-1.024 18.432-39.936 27.648-82.944 27.648-125.952-1.024-169.984-138.24-307.2-307.2-307.2s-306.176 137.216-306.176 306.176c0 44.032 9.216 86.016 27.648 125.952 0 0 0 1.024 0 1.024 20.48 47.104 51.2 95.232 84.992 140.288h-102.4c-7.168 0-13.312 4.096-16.384 10.24l-121.856 265.216c-3.072 6.144-2.048 12.288 1.024 17.408s9.216 8.192 15.36 8.192h834.56c6.144 0 12.288-3.072 15.36-8.192s4.096-12.288 2.048-17.408zM266.24 424.96c-15.36-34.816-23.552-71.68-23.552-110.592 0-147.456 120.832-268.288 269.312-268.288s269.312 120.832 269.312 269.312c0 37.888-8.192 74.752-23.552 109.568 0 0 0 1.024 0 1.024-59.392 126.976-201.728 278.528-245.76 322.56-44.032-43.008-187.392-191.488-244.736-322.56 0 0-1.024 0-1.024-1.024zM123.904 846.848l104.448-227.328h118.784c72.704 92.16 148.48 163.84 152.576 168.96 3.072 3.072 8.192 5.12 12.288 5.12 5.12 0 9.216-2.048 13.312-5.12 5.12-5.12 77.824-76.8 150.528-167.936h120.832l104.448 227.328h-777.216z"></path>
<path fill="#fff" d="M667.648 445.44l28.672-160.768h9.216c9.216 0 16.384-7.168 16.384-16.384s-7.168-16.384-16.384-16.384h-91.136l-44.032-68.608c-5.12-7.168-15.36-10.24-22.528-5.12s-10.24 15.36-5.12 22.528l32.768 50.176h-125.952l32.768-50.176c5.12-7.168 3.072-17.408-5.12-22.528-7.168-5.12-17.408-3.072-22.528 5.12l-44.032 68.608h-91.136c-9.216 0-16.384 7.168-16.384 16.384s7.168 16.384 16.384 16.384h8.192l27.648 160.768c4.096 26.624 27.648 45.056 53.248 45.056h204.8c27.648 0 50.176-19.456 54.272-45.056zM388.096 439.296l-26.624-154.624h301.056l-26.624 154.624c-2.048 10.24-11.264 18.432-21.504 18.432h-204.8c-10.24 0-19.456-8.192-21.504-18.432z"></path>
<path fill="#fff" d="M512 317.44v0c-9.216 0-16.384 7.168-16.384 16.384v74.752c0 9.216 7.168 16.384 16.384 16.384v0c9.216 0 16.384-7.168 16.384-16.384v-74.752c0-9.216-7.168-16.384-16.384-16.384z"></path>
<path fill="#fff" d="M590.848 317.44c-9.216-1.024-17.408 6.144-17.408 14.336l-7.168 74.752c-1.024 9.216 6.144 17.408 14.336 17.408 1.024 0 1.024 0 2.048 0 8.192 0 15.36-6.144 16.384-14.336l7.168-74.752c1.024-9.216-6.144-17.408-15.36-17.408z"></path>
<path fill="#fff" d="M433.152 317.44c-9.216 1.024-15.36 9.216-14.336 17.408l7.168 74.752c1.024 8.192 8.192 14.336 16.384 14.336 1.024 0 1.024 0 2.048 0 9.216-1.024 15.36-9.216 14.336-17.408l-8.192-74.752c-1.024-9.216-9.216-15.36-17.408-14.336z"></path>
</svg>
