<!-- Generated by IcoMoon.io -->
<svg version="1.1" xmlns="http://www.w3.org/2000/svg" width="1024" height="1024" viewBox="0 0 1024 1024">
<title></title>
<g id="icomoon-ignore">
</g>
<path fill="#fff" d="M809.984 822.272h-601.088c-11.264 0-20.48 9.216-20.48 20.48s9.216 20.48 20.48 20.48h600.064c11.264 0 20.48-9.216 20.48-20.48s-8.192-20.48-19.456-20.48z"></path>
<path fill="#fff" d="M494.592 805.888c4.096 4.096 9.216 6.144 14.336 6.144s10.24-3.072 14.336-6.144l221.184-222.208c8.192-8.192 8.192-20.48 0-29.696-8.192-8.192-20.48-8.192-29.696 0l-184.32 186.368v-578.56c0-11.264-9.216-20.48-20.48-20.48s-20.48 9.216-20.48 20.48v578.56l-184.32-185.344c-8.192-8.192-20.48-8.192-29.696 0-8.192 8.192-8.192 20.48 0 29.696l219.136 221.184z"></path>
</svg>
