<!-- Generated by IcoMoon.io -->
<svg version="1.1" xmlns="http://www.w3.org/2000/svg" width="1024" height="1024" viewBox="0 0 1024 1024">
<title></title>
<g id="icomoon-ignore">
</g>
<path fill="#000" d="M412.207 734.906c-4.748 0-9.542-1.815-13.172-5.446l-181.155-181.201c-7.261-7.261-7.261-19.037 0-26.345 7.261-7.261 19.037-7.261 26.345 0l181.155 181.201c7.261 7.261 7.261 19.037 0 26.345-3.631 3.631-8.378 5.446-13.172 5.446z"></path>
<path fill="#000" d="M412.253 734.86c-4.748 0-9.542-1.815-13.172-5.446-7.261-7.261-7.261-19.037 0-26.345l380.695-380.695c7.261-7.261 19.037-7.261 26.345 0 7.261 7.261 7.261 19.037 0 26.345l-380.695 380.695c-3.631 3.631-8.378 5.446-13.172 5.446z"></path>
</svg>
